# xmcd
#
# Track frame offsets:
#	150
#	17135
#	36750
#	59780
#
# Disc length: 1156 seconds
# Revision: 0
# Processed by: cddbd v1.5.2PL0 Copyright (c) Steve Scherf et al.
# Submitted via: dBpowerAMP V12.0
#
DISCID=32048204
DTITLE=Urban Cookie Collective - Bring It On Home
DYEAR=1994
DGENRE=Pop
TTITLE0=Bring It On Home [7” Edit]
TTITLE1=Bring It On Home [7” Instrumental]
TTITLE2=Bring It On Home [Extended Vocal Mix]
TTITLE3=Bring It On Home [Almost Vicious Dub]
EXTD=
EXTT0=
EXTT1=
EXTT2=
EXTT3=
PLAYORDER=
